<?xml version="1.0" standalone="no"?>
<!DOCTYPE svg PUBLIC "-//W3C//DTD SVG 1.1//EN" "http://www.w3.org/Graphics/SVG/1.1/DTD/svg11.dtd" >
<svg xmlns="http://www.w3.org/2000/svg">
<metadata></metadata>
<defs>
<font id="aktiv_groteskxbold" horiz-adv-x="1212" >
<font-face units-per-em="2048" ascent="1651" descent="-397" />
<missing-glyph horiz-adv-x="440" />
<glyph unicode="&#xfb01;" horiz-adv-x="1458" d="M31 745v289h172v33q0 195 113.5 303.5t312.5 108.5q61 0 124.5 -10.5t120.5 -26.5l-47 -262q-29 6 -61.5 11t-63.5 5q-59 0 -94 -27.5t-35 -97.5v-37h234v-289h-234v-745h-370v745h-172zM973 1194v268h374v-268h-374zM975 0v1075h370v-1075h-370z" />
<glyph unicode="&#xfb02;" horiz-adv-x="1466" d="M31 745v289h172v33q0 195 113.5 303.5t312.5 108.5q61 0 124.5 -10.5t120.5 -26.5l-47 -262q-29 6 -61.5 11t-63.5 5q-59 0 -94 -27.5t-35 -97.5v-37h234v-289h-234v-745h-370v745h-172zM979 0v1462h370v-1462h-370z" />
<glyph unicode="&#xfb03;" horiz-adv-x="2328" d="M31 745v289h172v33q0 195 113.5 303.5t312.5 108.5q61 0 124.5 -10.5t120.5 -26.5l-47 -262q-29 6 -61.5 11t-63.5 5q-59 0 -94 -27.5t-35 -97.5v-37h234v-289h-234v-745h-370v745h-172zM903 745v289h172v33q0 195 113.5 303.5t312.5 108.5q61 0 124.5 -10.5t120.5 -26.5 l-47 -262q-29 6 -61.5 11t-63.5 5q-59 0 -94 -27.5t-35 -97.5v-37h234v-289h-234v-745h-370v745h-172zM1844 1194v268h374v-268h-374zM1846 0v1075h370v-1075h-370z" />
<glyph unicode="&#xfb04;" horiz-adv-x="2322" d="M31 745v289h172v33q0 195 113.5 303.5t312.5 108.5q61 0 124.5 -10.5t120.5 -26.5l-47 -262q-29 6 -61.5 11t-63.5 5q-59 0 -94 -27.5t-35 -97.5v-37h234v-289h-234v-745h-370v745h-172zM903 745v289h172v33q0 195 113.5 303.5t312.5 108.5q61 0 124.5 -10.5t120.5 -26.5 l-47 -262q-29 6 -61.5 11t-63.5 5q-59 0 -94 -27.5t-35 -97.5v-37h234v-289h-234v-745h-370v745h-172zM1839 0v1462h370v-1462h-370z" />
<glyph unicode="&#xd;" horiz-adv-x="440" />
<glyph horiz-adv-x="0" />
<glyph horiz-adv-x="0" />
<glyph unicode=" "  horiz-adv-x="440" />
<glyph unicode="&#x09;" horiz-adv-x="440" />
<glyph unicode="&#xa0;" horiz-adv-x="440" />
<glyph unicode="!" horiz-adv-x="628" d="M113 1462h403l-37 -993h-329zM141 0v354h346v-354h-346z" />
<glyph unicode="&#x22;" horiz-adv-x="903" d="M66 1462h327l-16 -585h-295zM510 1462h328l-17 -585h-295z" />
<glyph unicode="#" d="M35 307v262h176l41 256h-152v262h195l49 302h293l-49 -302h174l49 302h293l-49 -302h110v-262h-153l-41 -256h129v-262h-172l-49 -307h-293l49 307h-174l-49 -307h-293l49 307h-133zM504 569h174l41 256h-174z" />
<glyph unicode="$" d="M33 471h350q4 -78 36 -138.5t111 -82.5v319q-248 49 -362.5 152.5t-114.5 286.5q0 186 118 304t359 134v203h123v-203q127 -10 214 -48t142.5 -97.5t83 -135t35.5 -155.5l-342 -35q-25 160 -133 192v-290l80 -17q231 -51 326.5 -161.5t95.5 -276.5q0 -90 -27.5 -171 t-88 -142.5t-156 -99.5t-230.5 -44v-219h-123v219q-127 8 -218 48t-152.5 106.5t-92 154.5t-34.5 197zM395 1040q0 -49 31 -81.5t104 -55.5v271q-80 -10 -107.5 -48.5t-27.5 -85.5zM653 242q82 8 115 50t33 97q0 53 -31 95t-117 61v-303z" />
<glyph unicode="%" horiz-adv-x="2048" d="M62 1008q0 115 28.5 197.5t81 137t123 81t154.5 26.5t155.5 -26.5t123 -81t80 -137.5t28.5 -197q0 -115 -28.5 -198t-81 -137.5t-123 -81t-154.5 -26.5t-155.5 26.5t-123 81t-80 137.5t-28.5 198zM351 1010q0 -119 25.5 -160t72.5 -41t72.5 41t25.5 160t-25.5 157.5 t-72.5 38.5t-72.5 -38.5t-25.5 -157.5zM518 0l662 1415h344l-662 -1415h-344zM1213 418q0 115 28.5 197.5t81 137t123 81t154.5 26.5t155.5 -26.5t123 -81t80 -137.5t28.5 -197q0 -115 -28.5 -198t-81 -137.5t-123 -81t-154.5 -26.5t-155.5 26.5t-123 81t-80 137.5 t-28.5 198zM1502 420q0 -119 25.5 -160t72.5 -41t72.5 41t25.5 160t-25.5 157.5t-72.5 38.5t-72.5 -38.5t-25.5 -157.5z" />
<glyph unicode="&#x26;" horiz-adv-x="1439" d="M49 399q0 117 65.5 224.5t225.5 189.5q-63 78 -95 151.5t-32 151.5q0 74 29.5 140.5t86 117.5t138.5 81t186 30q98 0 176 -26.5t130.5 -74t80 -110.5t27.5 -135q0 -109 -65.5 -205t-215.5 -176l226 -256q39 109 39 250h309q0 -145 -37 -267.5t-104 -220.5l231 -264h-387 l-62 68q-172 -100 -405 -101q-127 0 -227.5 30t-172 86t-109.5 136t-38 180zM410 436q0 -37 13 -72.5t42 -62.5t74.5 -43t111.5 -16q98 0 166 32l-307 347q-55 -43 -77.5 -90.5t-22.5 -94.5zM537 1110q0 -41 23.5 -80t70.5 -92q55 35 87 74t32 98q0 53 -26 84t-77 31 q-53 0 -81.5 -34t-28.5 -81z" />
<glyph unicode="'" horiz-adv-x="473" d="M66 1462h342l-15 -585h-313z" />
<glyph unicode="(" horiz-adv-x="702" d="M82 625q0 252 68.5 475t189.5 403h358q-121 -217 -175 -431t-54 -447t54.5 -447.5t174.5 -431.5h-358q-121 180 -189.5 403.5t-68.5 475.5z" />
<glyph unicode=")" horiz-adv-x="702" d="M4 -254q121 217 175 431t54 448q0 233 -54 447t-175 431h358q121 -180 190 -403t69 -475t-69 -475.5t-190 -403.5h-358z" />
<glyph unicode="*" horiz-adv-x="880" d="M18 1067l107 268l211 -127l-45 254h301l-45 -254l211 127l106 -268l-260 -55l197 -189l-236 -174l-125 230l-123 -230l-235 174l197 189z" />
<glyph unicode="+" d="M102 537v321h336v363h334v-363h336v-321h-336v-363h-334v363h-336z" />
<glyph unicode="," horiz-adv-x="550" d="M49 -193l74 584h354l-145 -584h-283z" />
<glyph unicode="-" horiz-adv-x="839" d="M80 444v342h680v-342h-680z" />
<glyph unicode="." horiz-adv-x="550" d="M98 0v391h357v-391h-357z" />
<glyph unicode="/" horiz-adv-x="876" d="M16 0l476 1503h368l-477 -1503h-367z" />
<glyph unicode="0" d="M63 705q0 391 142.5 570t406.5 179q268 0 402.5 -182t134.5 -559q0 -391 -142.5 -570.5t-406.5 -179.5q-268 0 -402.5 181.5t-134.5 560.5zM446 709q0 -225 34 -324.5t126 -99.5t126 99t34 325q0 225 -34 324.5t-126 99.5t-126 -99.5t-34 -324.5z" />
<glyph unicode="1" d="M127 1110l465 305h313v-1415h-377v995l-229 -153z" />
<glyph unicode="2" d="M66 991q14 100 52 185.5t105.5 146.5t164.5 96t228 35q240 0 370 -117.5t130 -326.5q0 -80 -19.5 -148.5t-57.5 -130t-92 -120t-122 -122.5q-59 -53 -111 -97t-98 -83h523l-33 -309h-1014v279q43 35 79 64.5t74 61t82 68.5t103 88q80 68 138.5 123t96 104.5t57 96.5 t19.5 100q0 72 -35.5 113t-109.5 41q-70 0 -114 -42t-60 -141z" />
<glyph unicode="3" d="M66 483h364q6 -111 48 -161t128 -50q72 0 117 36t45 120q0 72 -40 109.5t-132 37.5h-121v302h131q137 0 137 133q0 59 -31.5 96t-109.5 37q-68 0 -108.5 -37t-59.5 -133l-352 37q27 211 165 327.5t380 116.5q121 0 212 -28.5t152.5 -81t92 -124t30.5 -157.5 q0 -96 -43 -180t-145 -131q123 -49 173 -141.5t50 -202.5q0 -98 -35 -179.5t-103.5 -140.5t-171 -92t-235.5 -33q-158 0 -261 44t-164.5 117t-87 167t-25.5 192z" />
<glyph unicode="4" d="M45 281v274l600 860h365v-854h161l-32 -280h-129v-281h-353v281h-612zM375 561h282v404z" />
<glyph unicode="5" d="M92 422h369q18 -152 151 -152q156 0 156 191q0 90 -38 138t-124 48q-102 0 -164 -74h-319l74 842h852v-309h-562l-22 -232q47 33 107.5 47.5t125.5 14.5q113 0 196 -38t135 -102.5t78 -150.5t26 -184q0 -244 -139.5 -371t-381.5 -127q-231 0 -369.5 118t-150.5 341z" />
<glyph unicode="6" d="M82 670q0 201 42 348t118.5 244.5t184.5 144.5t237 47q92 0 170.5 -23.5t140 -72.5t102.5 -124t56 -175l-345 -35q-12 55 -44.5 91t-102.5 36q-104 0 -149.5 -86t-51.5 -246q51 45 118 70.5t159 25.5q94 0 174 -29.5t136 -86t88 -140.5t32 -192q0 -119 -37 -212 t-106.5 -158.5t-167 -99.5t-215.5 -34q-143 0 -246 49t-167.5 141.5t-95 222.5t-30.5 294zM453 457q0 -86 41 -144.5t127 -58.5q74 0 124 49t50 154q0 82 -39 134t-129 52q-74 0 -124 -42t-50 -144z" />
<glyph unicode="7" d="M82 1096v319h1028v-276q-145 -270 -255 -545t-196 -594h-395q43 156 95.5 304.5t108.5 287.5t115.5 266t116.5 238h-618z" />
<glyph unicode="8" d="M55 385q0 133 58.5 217t150.5 129q-88 49 -130 128t-42 183q0 184 132 298t386 114q131 0 227.5 -30.5t158 -84t92 -128t30.5 -162.5q0 -217 -172 -318q43 -20 81 -50t67.5 -71t46 -96t16.5 -125q0 -94 -32.5 -173t-101.5 -135t-173.5 -87t-247.5 -31q-145 0 -248.5 32 t-169 87t-97.5 133t-32 170zM410 420q0 -76 45 -121t151 -45t151.5 46t45.5 122q0 72 -43 117t-154 45t-153.5 -46t-42.5 -118zM430 1012q0 -72 40 -111t132 -39q94 0 134 40t40 110t-39 112.5t-135 42.5t-134 -43.5t-38 -111.5z" />
<glyph unicode="9" d="M61 952q0 117 37 210t105.5 157.5t166 99.5t218.5 35q145 0 247.5 -50t168 -143.5t95 -228.5t29.5 -305q0 -215 -43 -361.5t-118.5 -235.5t-177 -128t-220.5 -39q-217 0 -344 110.5t-143 313.5h348q18 -123 145 -123q104 0 149.5 82t45.5 250q-49 -47 -116.5 -72.5 t-159.5 -25.5q-94 0 -174 29.5t-137.5 87t-89.5 142.5t-32 195zM416 963q0 -82 38 -136.5t130 -54.5q31 0 62.5 8t56 28.5t41 57.5t16.5 92q0 90 -41 147.5t-127 57.5q-76 0 -126 -49t-50 -151z" />
<glyph unicode=":" horiz-adv-x="550" d="M98 0v391h357v-391h-357zM98 684v391h357v-391h-357z" />
<glyph unicode=";" horiz-adv-x="550" d="M49 -193l74 584h354l-145 -584h-283zM98 684v391h357v-391h-357z" />
<glyph unicode="&#x3c;" d="M135 543v303l952 391v-332l-536 -207l536 -206v-340z" />
<glyph unicode="=" d="M154 311v310h905v-310h-905zM154 778v309h905v-309h-905z" />
<glyph unicode="&#x3e;" d="M125 152v331l537 207l-537 207v340l952 -391v-303z" />
<glyph unicode="?" horiz-adv-x="1101" d="M27 1042q25 205 158.5 325t373.5 120q111 0 202 -25.5t156.5 -75t101.5 -121t36 -163.5q0 -55 -13.5 -101.5t-34 -85t-48 -70.5t-54.5 -59q-45 -45 -79.5 -77.5t-59.5 -64.5t-37 -66.5t-12 -81.5v-27h-338v43q0 80 22.5 138.5t55 101.5t71.5 76.5t72 66.5t55.5 67.5 t22.5 81.5q0 59 -37 92t-104 33q-68 0 -112 -37.5t-56 -123.5zM373 0v354h346v-354h-346z" />
<glyph unicode="@" horiz-adv-x="2084" d="M86 426q0 254 92 446.5t241.5 322.5t340 195.5t389.5 65.5q180 0 335.5 -54t271.5 -158.5t181.5 -256t65.5 -346.5q0 -154 -40 -272.5t-110.5 -201.5t-166 -126t-205.5 -43q-43 0 -87 7t-84 25.5t-72 50.5t-50 79q-59 -90 -131 -129t-160 -39q-80 0 -142.5 29.5 t-104.5 83t-63.5 128t-21.5 166.5q0 119 35 223.5t95.5 182.5t143.5 123t179 45q145 0 219 -113l16 92h310l-103 -606q-2 -10 -3 -20.5t-1 -20.5q0 -35 15.5 -56.5t54.5 -21.5t76.5 26t68.5 78t49.5 128t18.5 178q0 154 -44 264.5t-124 182t-189.5 105.5t-240.5 34 q-180 0 -325.5 -60.5t-247 -167t-157 -253t-55.5 -318.5q0 -141 38 -261t117 -207t197.5 -137t280.5 -50q139 0 230.5 35.5t158.5 95.5h336q-35 -61 -97.5 -127t-154.5 -118t-214 -86t-275 -34q-203 0 -367 62.5t-279.5 178t-178 280.5t-62.5 370zM901 420q0 -82 23.5 -119 t76.5 -37q123 0 154 199l12 82q2 14 3 27.5t1 27.5q0 47 -19 84t-75 37q-45 0 -78.5 -26.5t-55 -68.5t-32 -96.5t-10.5 -109.5z" />
<glyph unicode="A" horiz-adv-x="1523" d="M31 0l508 1462h446l508 -1462h-408l-84 281h-493l-82 -281h-395zM604 594h301l-149 504z" />
<glyph unicode="B" horiz-adv-x="1376" d="M135 0v1462h613q154 0 255 -29.5t161.5 -82t85 -121t24.5 -146.5q0 -98 -40 -176t-140 -131q121 -59 170 -144t49 -200q0 -86 -29 -165t-94.5 -138t-173 -94t-262.5 -35h-619zM506 295h215q125 0 170 44t45 120t-44 115.5t-159 39.5h-227v-319zM506 901h213q102 0 139 34 t37 99q0 70 -43 101.5t-154 31.5h-192v-266z" />
<glyph unicode="C" horiz-adv-x="1490" d="M92 723q0 172 44 314.5t133 244.5t221.5 159.5t310.5 57.5q270 0 422.5 -134t193.5 -382l-391 -45q-10 47 -26.5 88t-44 70.5t-68.5 47t-99 17.5q-280 0 -280 -425q0 -122 20.5 -204.5t58.5 -134t90 -74t116 -22.5q215 0 245 234h402q-8 -121 -51 -225.5t-123 -181.5 t-199 -121t-276 -44q-178 0 -309.5 55.5t-217.5 155.5t-129 240.5t-43 308.5z" />
<glyph unicode="D" horiz-adv-x="1542" d="M135 0v1462h576q365 0 552 -182t187 -532q0 -360 -197.5 -554t-564.5 -194h-553zM528 332h166q180 0 264 105.5t84 297.5q0 193 -77.5 294t-249.5 101h-187v-798z" />
<glyph unicode="E" horiz-adv-x="1275" d="M135 0v1462h1047v-323h-664v-234h623v-323h-623v-258h707l-33 -324h-1057z" />
<glyph unicode="F" horiz-adv-x="1214" d="M135 0v1462h1002v-327h-615v-275h580v-328h-580v-532h-387z" />
<glyph unicode="G" horiz-adv-x="1538" d="M92 723q0 182 48 326.5t138.5 244t222.5 152.5t302 53q147 0 255.5 -39t184.5 -104.5t118 -151.5t58 -180l-393 -39q-23 94 -76 138t-151 44q-154 0 -226.5 -108.5t-72.5 -325.5q0 -219 78.5 -328.5t265.5 -109.5q131 0 229 53v170h-233v318h596v-666 q-109 -88 -270.5 -147.5t-356.5 -59.5q-182 0 -316.5 54.5t-223.5 153.5t-133 239.5t-44 312.5z" />
<glyph unicode="H" horiz-adv-x="1531" d="M135 0v1462h393v-530h476v530h393v-1462h-393v578h-476v-578h-393z" />
<glyph unicode="I" horiz-adv-x="663" d="M135 0v1462h393v-1462h-393z" />
<glyph unicode="J" horiz-adv-x="1359" d="M55 545h394q8 -121 51 -182.5t145 -61.5q104 0 152.5 61.5t48.5 172.5v927h393v-923q0 -283 -156.5 -429.5t-437.5 -146.5q-285 0 -432 149.5t-158 432.5z" />
<glyph unicode="K" horiz-adv-x="1466" d="M135 0v1462h393v-530l445 530h428l-465 -553l518 -909h-430l-350 633l-146 -162v-471h-393z" />
<glyph unicode="L" horiz-adv-x="1220" d="M135 0v1462h393v-1128h648l-35 -334h-1006z" />
<glyph unicode="M" horiz-adv-x="1810" d="M135 0v1462h457l313 -979l316 979h454v-1462h-370v805l-261 -805h-286l-260 809v-809h-363z" />
<glyph unicode="N" horiz-adv-x="1513" d="M135 0v1462h344l527 -837v837h372v-1462h-340l-530 836v-836h-373z" />
<glyph unicode="O" horiz-adv-x="1624" d="M92 725q0 178 48 321.5t140.5 244t227.5 154.5t309 54q172 0 305 -53t224.5 -151.5t138.5 -240t47 -317.5q0 -178 -48 -321.5t-140.5 -243.5t-227.5 -154.5t-309 -54.5q-172 0 -305 53.5t-224.5 151.5t-138.5 239.5t-47 317.5zM500 731q0 -211 77.5 -320.5t235.5 -109.5 t234.5 109.5t76.5 320.5t-76.5 320.5t-234.5 109.5t-235.5 -109.5t-77.5 -320.5z" />
<glyph unicode="P" horiz-adv-x="1339" d="M135 0v1462h547q172 0 285.5 -39t180 -105.5t93.5 -154.5t27 -188q0 -102 -28 -193.5t-95.5 -160t-179 -107.5t-279.5 -39h-170v-475h-381zM516 788h168q123 0 171 46.5t48 138.5t-49 135t-172 43h-166v-363z" />
<glyph unicode="Q" horiz-adv-x="1622" d="M90 725q0 178 48 321.5t140.5 244t227.5 154.5t309 54q172 0 305 -53t224.5 -151.5t138.5 -240t47 -317.5t-47 -316t-140 -243l170 -209l-217 -176l-184 225q-68 -27 -144.5 -41t-162.5 -14q-172 0 -305 53.5t-224.5 151.5t-138.5 239.5t-47 317.5zM498 731 q0 -211 77.5 -320.5t235.5 -109.5q18 0 36.5 1t33.5 3l-160 199l217 176l152 -188q32 89 32 230v9q0 211 -76.5 320.5t-234.5 109.5t-235.5 -109.5t-77.5 -320.5z" />
<glyph unicode="R" horiz-adv-x="1394" d="M135 0v1462h578q170 0 282.5 -39t179 -103.5t94 -148.5t27.5 -172q0 -139 -53 -244.5t-164 -170.5l299 -584h-415l-240 504h-213v-504h-375zM510 809h192q119 0 167.5 46t48.5 132q0 82 -51.5 127t-176.5 45h-180v-350z" />
<glyph unicode="S" horiz-adv-x="1372" d="M55 481h391q12 -102 76 -152t187 -50q104 0 156.5 36.5t52.5 104.5q0 51 -35 85t-127 52l-195 37q-244 45 -360.5 151.5t-116.5 294.5q0 227 156.5 343t431.5 116q160 0 272.5 -37t184 -98t108.5 -142t47 -169l-381 -39q-18 88 -70.5 131t-162.5 43q-100 0 -148.5 -34 t-48.5 -91q0 -51 39 -82t125 -47l199 -39q258 -51 366.5 -165t108.5 -288q0 -109 -37 -196.5t-113 -150t-192.5 -97.5t-274.5 -35q-608 4 -639 518z" />
<glyph unicode="T" horiz-adv-x="1331" d="M47 1128v334h1237v-334h-422v-1128h-393v1128h-422z" />
<glyph unicode="U" horiz-adv-x="1470" d="M117 606v856h393v-870q0 -147 51 -219t174 -72t174.5 71.5t51.5 219.5v870h393v-856q0 -170 -43 -291.5t-123 -199.5t-196 -115t-261 -37t-260 37t-193.5 115t-119.5 199.5t-41 291.5z" />
<glyph unicode="V" horiz-adv-x="1490" d="M31 1462h422l297 -997l297 997h413l-493 -1462h-443z" />
<glyph unicode="W" horiz-adv-x="2031" d="M31 1462h418l188 -954l205 944h362l209 -944l182 954h406l-379 -1462h-393l-211 936l-207 -936h-389z" />
<glyph unicode="X" horiz-adv-x="1484" d="M16 0l482 768l-447 694h443l247 -426l248 426h422l-442 -708l499 -754h-442l-301 494l-285 -494h-424z" />
<glyph unicode="Y" horiz-adv-x="1413" d="M20 1462h426l265 -559l268 559h414l-486 -895v-567h-395v567z" />
<glyph unicode="Z" horiz-adv-x="1280" d="M66 0v283l661 856h-647v323h1114v-284l-659 -854h700l-35 -324h-1134z" />
<glyph unicode="[" horiz-adv-x="782" d="M133 -254v1757h606v-315h-233v-1127h233v-315h-606z" />
<glyph unicode="\" horiz-adv-x="876" d="M16 1503h369l475 -1503h-366z" />
<glyph unicode="]" horiz-adv-x="782" d="M43 61h233v1127h-233v315h606v-1757h-606v315z" />
<glyph unicode="^" d="M49 596l400 872h313l399 -872h-373l-186 451l-186 -451h-367z" />
<glyph unicode="_" horiz-adv-x="1024" d="M0 -252h1024v-106h-1024v106z" />
<glyph unicode="`" horiz-adv-x="882" d="M106 1538h414l256 -338h-340z" />
<glyph unicode="a" horiz-adv-x="1198" d="M61 295q0 98 40 164.5t110 108.5t164 61.5t203 25.5l161 9v43q0 80 -38.5 110.5t-98.5 30.5q-127 0 -145 -107l-334 27q29 172 153.5 256t341.5 84q135 0 226.5 -32t147 -89t80 -138t24.5 -181v-668h-346v117q-66 -70 -143 -108t-183 -38q-72 0 -137.5 18.5t-115.5 58.5 t-80 100.5t-30 146.5zM418 324q0 -53 31.5 -76t89.5 -23q86 0 142 48.5t56 144.5v37l-119 -6q-117 -6 -158.5 -39t-41.5 -86z" />
<glyph unicode="b" horiz-adv-x="1298" d="M113 0v1462h370v-491q111 139 303 139q205 0 318 -145.5t113 -409.5q0 -139 -32 -248.5t-91.5 -184.5t-142.5 -114t-185 -39q-193 0 -293 144v-113h-360zM483 526q0 -74 11.5 -123t31.5 -77q25 -35 61 -48.5t72 -13.5q82 0 132.5 61.5t50.5 213.5q0 150 -49.5 211 t-130.5 61q-39 0 -74 -14.5t-62 -53.5q-43 -61 -43 -186v-31z" />
<glyph unicode="c" horiz-adv-x="1181" d="M82 528q0 135 37 243t106.5 182.5t172 114.5t233.5 40q119 0 205 -32t144 -86t91 -128t41 -155l-354 -35q-8 57 -39 99t-98 42q-84 0 -124 -69.5t-40 -206.5q0 -129 37.5 -201t126.5 -72q129 0 145 150h358q-10 -98 -42.5 -181t-94 -141.5t-153 -91.5t-213.5 -33 q-139 0 -242 42t-167.5 115t-97 177.5t-32.5 226.5z" />
<glyph unicode="d" horiz-adv-x="1298" d="M82 522q0 139 31.5 249t91 184.5t142.5 113.5t185 39q180 0 283 -127v481h371v-1462h-361v121q-115 -154 -313 -154q-207 0 -318.5 145.5t-111.5 409.5zM457 539q0 -150 49 -211.5t131 -61.5q39 0 73.5 14.5t61.5 53.5q43 61 43 186v31q0 74 -11 123t-32 78 q-25 35 -60.5 48t-72.5 13q-82 0 -132 -61.5t-50 -212.5z" />
<glyph unicode="e" horiz-adv-x="1228" d="M82 520q0 141 39 251t109.5 184.5t172 113.5t228.5 39t223 -38t161.5 -108.5t98.5 -171t33 -223.5v-116h-709q10 -117 52 -167.5t133 -50.5q139 0 170 113h346q-33 -190 -164 -284.5t-348 -94.5q-270 0 -407.5 143.5t-137.5 409.5zM438 662h367q-4 98 -46 141t-128 43 q-94 0 -139.5 -49t-53.5 -135z" />
<glyph unicode="f" horiz-adv-x="843" d="M31 745v289h172v33q0 195 113.5 303.5t312.5 108.5q61 0 124.5 -10.5t120.5 -26.5l-47 -262q-29 6 -61.5 11t-63.5 5q-59 0 -94 -27.5t-35 -97.5v-37h234v-289h-234v-745h-370v745h-172z" />
<glyph unicode="g" horiz-adv-x="1298" d="M82 559q0 131 31.5 232.5t91 172t142.5 107.5t185 37q190 0 293 -135v104h361v-944q0 -279 -132 -416t-419 -137q-244 0 -369 97.5t-141 281.5h362q8 -53 42 -82t110 -29q57 0 92 17.5t53.5 53.5t24.5 88t6 120v45q-111 -129 -303 -129q-207 0 -318.5 135t-111.5 381z M457 578q0 -123 50 -178.5t128 -55.5q86 0 137 64q43 51 43 153v27q0 63 -11 102t-32 64q-25 31 -59.5 45t-75.5 14q-78 0 -129 -55.5t-51 -179.5z" />
<glyph unicode="h" horiz-adv-x="1249" d="M113 0v1462h370v-501q63 78 142.5 112.5t173.5 34.5q166 0 257 -98.5t91 -290.5v-719h-371v659q0 84 -31.5 114t-89.5 30q-74 0 -123 -47q-23 -23 -36 -51.5t-13 -81.5v-623h-370z" />
<glyph unicode="i" horiz-adv-x="595" d="M111 1194v268h374v-268h-374zM113 0v1075h370v-1075h-370z" />
<glyph unicode="j" horiz-adv-x="606" d="M-143 -340l49 266q29 -6 56.5 -10t49.5 -4q53 0 82 26.5t29 96.5v1040h371v-1055q0 -205 -99.5 -301t-281.5 -96q-63 0 -129 10.5t-127 26.5zM121 1194v268h375v-268h-375z" />
<glyph unicode="k" horiz-adv-x="1265" d="M113 0v1462h362v-714l338 327h416l-379 -362l410 -713h-392l-270 492l-123 -113v-379h-362z" />
<glyph unicode="l" horiz-adv-x="595" d="M113 0v1462h370v-1462h-370z" />
<glyph unicode="m" horiz-adv-x="1822" d="M113 0v1075h360v-125q53 76 128 117t173 41q100 0 173 -43t110 -125q66 84 144.5 126t184.5 42q160 0 247 -96.5t87 -288.5v-723h-370v682q0 72 -27 96.5t-76 24.5q-33 0 -57.5 -8.5t-46.5 -30.5q-18 -18 -29.5 -43t-11.5 -70v-651h-371v682q0 72 -26.5 96.5t-75.5 24.5 q-33 0 -57.5 -8.5t-47.5 -30.5q-18 -18 -29.5 -43t-11.5 -70v-651h-370z" />
<glyph unicode="n" horiz-adv-x="1249" d="M113 0v1075h360v-127q66 86 146.5 123t179.5 37q166 0 257 -97.5t91 -291.5v-719h-371v659q0 84 -31.5 114t-89.5 30q-74 0 -123 -47q-23 -23 -36 -51.5t-13 -81.5v-623h-370z" />
<glyph unicode="o" horiz-adv-x="1277" d="M82 535q0 272 148.5 422.5t412.5 150.5q262 0 407.5 -148.5t145.5 -416.5t-147.5 -421t-413.5 -153q-262 0 -407.5 148.5t-145.5 417.5zM457 539q0 -147 48 -211t134 -64t134 63.5t48 211.5q0 147 -48 210.5t-134 63.5t-134 -63.5t-48 -210.5z" />
<glyph unicode="p" horiz-adv-x="1298" d="M113 -397v1474h360v-121q113 154 313 154q205 0 318 -145.5t113 -409.5q0 -139 -32 -248.5t-91.5 -184.5t-142.5 -114t-185 -39q-180 0 -283 127v-493h-370zM483 526q0 -74 11.5 -123t31.5 -77q25 -35 61 -48.5t72 -13.5q86 0 134.5 64.5t48.5 210.5q0 143 -47 207.5 t-133 64.5q-39 0 -74 -14.5t-62 -53.5q-43 -61 -43 -186v-31z" />
<glyph unicode="q" horiz-adv-x="1298" d="M82 522q0 139 31.5 248t91 184.5t142.5 114.5t185 39q193 0 293 -143v112h361v-1474h-371v503q-111 -139 -303 -139q-205 0 -317.5 145.5t-112.5 409.5zM457 539q0 -141 47 -207t133 -66q39 0 73.5 14.5t61.5 53.5q43 61 43 186v31q0 74 -11 123t-32 78q-25 35 -60.5 48 t-72.5 13q-86 0 -134 -65.5t-48 -208.5z" />
<glyph unicode="r" horiz-adv-x="907" d="M113 0v1075h360v-131q57 78 131 114t170 36q59 0 105 -11l-41 -317q-23 6 -53.5 9t-61.5 3q-45 0 -89 -9t-79 -34q-37 -29 -54.5 -71.5t-17.5 -112.5v-551h-370z" />
<glyph unicode="s" horiz-adv-x="1124" d="M55 344h351q12 -63 57 -87t115 -24q72 0 102.5 20.5t30.5 63.5q0 33 -21.5 53.5t-83.5 30.5l-125 21q-209 35 -306 114.5t-97 221.5q0 172 126 261t355 89q129 0 219 -26.5t148.5 -72.5t89.5 -105.5t43 -123.5l-342 -35q-12 55 -47 83t-111 28q-72 0 -102.5 -23.5 t-30.5 -58.5q0 -33 25.5 -51t97.5 -31l123 -22q115 -20 191.5 -51t122.5 -72t65.5 -95.5t19.5 -121.5q0 -180 -121 -271.5t-368 -91.5q-98 0 -190.5 17.5t-165 60.5t-119 115.5t-52.5 183.5z" />
<glyph unicode="t" horiz-adv-x="866" d="M29 786v289h172v283h370v-283h234v-289h-234v-383q0 -74 33 -99t90 -25q47 0 103 12l47 -271q-122 -38 -248 -38h-6q-211 0 -300 98t-89 307v399h-172z" />
<glyph unicode="u" horiz-adv-x="1239" d="M102 356v719h371v-659q0 -84 31 -114t86 -30q70 0 119 47q20 23 33.5 51.5t13.5 82.5v622h370v-1075h-360v127q-63 -86 -144 -123t-178 -37q-164 0 -253 99.5t-89 289.5z" />
<glyph unicode="v" horiz-adv-x="1206" d="M20 1075h402l188 -684l189 684h387l-389 -1075h-387z" />
<glyph unicode="w" horiz-adv-x="1660" d="M20 1075h375l131 -633l166 625h295l166 -625l131 633h356l-303 -1075h-346l-160 621l-159 -621h-348z" />
<glyph unicode="x" horiz-adv-x="1185" d="M12 0l377 549l-340 526h410l151 -258l162 258h375l-340 -508l367 -567h-406l-180 295l-185 -295h-391z" />
<glyph unicode="y" horiz-adv-x="1220" d="M20 1075h402l205 -600l188 600h385l-430 -1079q-43 -106 -81 -181t-85 -122t-106.5 -68.5t-145.5 -21.5q-66 0 -128 11t-115 28l55 268q29 -6 61.5 -11t61.5 -5q51 0 89 25.5t62 96.5l23 66z" />
<glyph unicode="z" horiz-adv-x="1071" d="M74 0v236l473 557h-463v282h922v-235l-474 -557h498l-31 -283h-925z" />
<glyph unicode="{" horiz-adv-x="792" d="M37 473v303h20q66 0 97.5 39t31.5 105v227q0 174 91.5 265t277.5 91h199v-313h-109q-106 0 -106 -109v-231q0 -72 -31 -133.5t-107 -91.5q76 -31 107 -92.5t31 -133.5v-231q0 -109 106 -109h109v-313h-199q-186 0 -277.5 91t-91.5 265v228q0 66 -31.5 104.5t-97.5 38.5 h-20z" />
<glyph unicode="|" horiz-adv-x="616" d="M133 -254v1757h350v-1757h-350z" />
<glyph unicode="}" horiz-adv-x="792" d="M39 59h108q106 0 107 109v231q0 72 30.5 133.5t106.5 92.5q-76 31 -106.5 92t-30.5 133v231q0 109 -107 109h-108v313h199q186 0 277 -91t91 -265v-227q0 -66 32 -105t97 -39h21v-303h-21q-66 0 -97.5 -39t-31.5 -104v-228q0 -174 -91 -265t-277 -91h-199v313z" />
<glyph unicode="~" d="M41 438q0 254 89 374t255 120q80 0 134 -22.5t96 -48t77 -48t74 -22.5q47 0 69.5 36.5t22.5 98.5h313q0 -254 -89 -374t-255 -120q-80 0 -134 22.5t-96 48t-77 48t-74 22.5q-47 0 -69.5 -36.5t-22.5 -98.5h-313z" />
<glyph unicode="&#xa1;" horiz-adv-x="608" d="M102 -387l37 993h330l37 -993h-404zM131 721v354h346v-354h-346z" />
<glyph unicode="&#xa2;" d="M84 731q0 246 122 396.5t359 170.5v193h121v-191q201 -14 310.5 -123.5t127.5 -277.5l-340 -33q-8 55 -31.5 91t-66.5 51v-545q96 25 105 151h346q-10 -94 -41 -171.5t-86.5 -135t-136 -92.5t-187.5 -41v-197h-121v197q-125 8 -216 53t-149.5 118t-87 171t-28.5 215z M444 737q0 -104 28 -174.5t93 -95.5v539q-68 -25 -94.5 -96t-26.5 -173z" />
<glyph unicode="&#xa3;" d="M76 563v275h123q-6 39 -10.5 76.5t-4.5 78.5q0 119 39 206t106.5 144.5t156.5 84t190 26.5q209 0 328.5 -108.5t134.5 -298.5l-330 -37q-8 61 -40 98t-101 37q-72 0 -105 -42t-33 -134q0 -29 3.5 -63t9.5 -68h399v-275h-364q-2 -70 -19.5 -137.5t-56.5 -122.5h667 l-34 -303h-1014v248q61 72 90 139.5t29 157.5v18h-164z" />
<glyph unicode="&#xa4;" d="M57 276l125 138q-31 59 -48 124.5t-17 137.5q0 147 65 264l-125 135l226 203l123 -139q94 41 206 41q53 0 101.5 -10.5t95.5 -28.5l121 137l223 -203l-117 -127q33 -61 50.5 -129.5t17.5 -140.5q0 -145 -70 -272l119 -130l-223 -200l-125 137q-90 -39 -193 -39 q-59 0 -109 11.5t-95 31.5l-125 -141zM406 678q0 -121 50 -192.5t154 -71.5q106 0 155.5 71.5t49.5 192.5q0 119 -49 190.5t-156 71.5q-104 0 -154 -71.5t-50 -190.5z" />
<glyph unicode="&#xa5;" d="M14 1415h381l217 -520l219 520h367l-313 -647h223v-190h-320v-127h320v-191h-320v-260h-362v260h-317v191h317v127h-317v190h223z" />
<glyph unicode="&#xa6;" horiz-adv-x="616" d="M133 -254v723h350v-723h-350zM133 815v688h350v-688h-350z" />
<glyph unicode="&#xa7;" horiz-adv-x="1191" d="M68 166h358q14 -86 59 -117t123 -31q82 0 117 27t35 76q0 41 -25.5 67.5t-93.5 42.5l-170 41q-106 25 -179 56.5t-118 71.5t-64.5 91.5t-19.5 116.5q0 102 39 167t107 106q-66 37 -104 102.5t-38 157.5q0 170 135.5 264t368.5 94q131 0 223 -28.5t151.5 -76.5 t92.5 -110.5t47 -130.5l-342 -47q-20 72 -58 104.5t-118 32.5t-114 -27.5t-34 -74.5q0 -39 25 -64.5t90 -42.5l197 -51q94 -25 161.5 -53.5t110.5 -66.5t62.5 -88t19.5 -120q0 -92 -36 -157.5t-118 -114.5q84 -47 120 -112.5t36 -157.5q0 -180 -129 -270.5t-369 -90.5 q-102 0 -197 19.5t-170 66.5t-123 127t-58 201zM395 651q0 -47 25.5 -77.5t99.5 -51.5l70 -18q45 -12 86 -12q59 0 94 30.5t35 95.5q0 18 -4 36t-17.5 34.5t-38 30.5t-65.5 24l-70 19q-47 12 -86 12q-59 0 -94 -30.5t-35 -92.5z" />
<glyph unicode="&#xa8;" horiz-adv-x="882" d="M53 1212v273h328v-273h-328zM504 1212v273h327v-273h-327z" />
<glyph unicode="&#xa9;" horiz-adv-x="1597" d="M92 727q0 168 54.5 303t150.5 231.5t226 148.5t282 52q150 0 277.5 -52t222 -147.5t146.5 -229.5t52 -298q0 -168 -54 -303t-149.5 -231.5t-225.5 -148.5t-279 -52q-152 0 -281 52t-222 147.5t-146.5 229.5t-53.5 298zM279 731q0 -129 37.5 -233.5t107.5 -178t165 -112.5 t210 -39q113 0 208 39t164.5 112.5t107.5 178t38 233.5t-38 233.5t-107.5 178.5t-165 112.5t-207.5 38.5q-115 0 -210 -38.5t-165 -112.5t-107.5 -178.5t-37.5 -233.5zM418 723q0 92 24.5 169t74.5 133t125 87t173 31q160 0 250 -82t104 -209l-247 -33q-10 53 -37 81t-78 28 q-72 0 -102.5 -54.5t-30.5 -140.5q0 -197 139 -196q102 0 115 106h250q-10 -150 -103.5 -237t-265.5 -87q-102 0 -176 30t-121 84t-70.5 128t-23.5 162z" />
<glyph unicode="&#xaa;" horiz-adv-x="890" d="M49 905q0 76 33 127t87 82t126 46.5t149 17.5l103 4v26q0 55 -25.5 76t-70.5 21q-51 0 -75 -20.5t-30 -53.5l-252 20q43 248 365 248q100 0 167.5 -22.5t108.5 -64.5t58.5 -102.5t17.5 -133.5v-490h-256v86q-47 -51 -103.5 -78.5t-134.5 -27.5q-55 0 -103 14t-85 43 t-58.5 75t-21.5 107zM315 926q0 -72 84 -72q63 0 105.5 35t42.5 100v33l-70 -4q-100 -6 -131 -30.5t-31 -61.5z" />
<glyph unicode="&#xab;" horiz-adv-x="1253" d="M59 526l250 467h365l-223 -467l223 -469h-365zM588 526l250 467h364l-223 -467l223 -469h-364z" />
<glyph unicode="&#xac;" d="M135 598v322h909v-598h-333v276h-576z" />
<glyph unicode="&#xad;" horiz-adv-x="839" d="M80 444v342h680v-342h-680z" />
<glyph unicode="&#xae;" horiz-adv-x="1024" d="M61 1040q0 106 35 191.5t95.5 145t143.5 91t179 31.5t178 -31.5t142.5 -92t94.5 -144.5t34 -189q0 -104 -35 -189t-95.5 -144.5t-143.5 -91t-179 -31.5t-179 31.5t-142.5 91t-93.5 143.5t-34 188zM190 1042q0 -164 85 -253t237 -89q150 0 236 88.5t86 253.5 q0 168 -87.5 255t-234.5 87q-150 0 -236 -88t-86 -254zM326 827v441h188q98 0 141 -38t43 -108q0 -80 -59 -121l84 -174h-143l-64 142h-61v-142h-129zM455 1069h51q35 0 48 13.5t13 35.5q0 23 -14 35t-53 12h-45v-96z" />
<glyph unicode="&#xaf;" horiz-adv-x="882" d="M119 1217v264h645v-264h-645z" />
<glyph unicode="&#xb0;" horiz-adv-x="772" d="M55 1124q0 70 24.5 130.5t70 104.5t105.5 69.5t132 25.5t132.5 -25.5t104.5 -69.5t68.5 -103.5t24.5 -129.5t-24.5 -130t-68.5 -104t-104.5 -68.5t-132.5 -24.5t-133 24.5t-105.5 68.5t-69 103t-24.5 129zM279 1126q0 -51 28.5 -82.5t79.5 -31.5q49 0 78 31.5t29 82.5 t-29 83t-78 32q-51 0 -79.5 -31.5t-28.5 -83.5z" />
<glyph unicode="&#xb1;" d="M109 571v310h329v346h338v-346h330v-310h-330v-262h293v-309h-924v309h293v262h-329z" />
<glyph unicode="&#xb2;" horiz-adv-x="843" d="M86 1157q14 137 103.5 214t246.5 79q154 0 237 -71.5t83 -194.5q0 -90 -41 -148.5t-109 -122.5q-41 -37 -73.5 -64.5t-55.5 -43.5h293l-22 -213h-644v194l207 162q47 37 80 65.5t54.5 53.5t30.5 47.5t9 48.5q0 68 -61 68q-35 0 -52.5 -21.5t-25.5 -74.5z" />
<glyph unicode="&#xb3;" horiz-adv-x="843" d="M78 879h246q6 -119 104 -119q41 0 66.5 19.5t25.5 62.5t-25.5 62.5t-68.5 19.5h-64v184h64q82 0 82 74q0 70 -82 69q-39 0 -62.5 -19.5t-33.5 -72.5l-244 25q16 125 105.5 195.5t246.5 70.5q158 0 242 -67.5t84 -176.5q0 -53 -22.5 -96t-77.5 -78q63 -31 91.5 -84 t28.5 -117q0 -119 -90 -192.5t-258 -73.5q-104 0 -172.5 28t-108.5 72t-58.5 100t-18.5 114z" />
<glyph unicode="&#xb4;" horiz-adv-x="882" d="M106 1200l256 338h414l-330 -338h-340z" />
<glyph unicode="&#xb5;" horiz-adv-x="1249" d="M113 -395v1470h370v-659q0 -84 31 -114t88 -30q35 0 63.5 10.5t53.5 36.5q20 23 33.5 51.5t13.5 82.5v622h371v-1075h-361v127q-39 -66 -90 -102.5t-117 -36.5q-53 0 -86 26v-409h-370z" />
<glyph unicode="&#xb6;" horiz-adv-x="1429" d="M31 969q0 98 30.5 187t102.5 157.5t190.5 108.5t296.5 40h649v-1747h-329v1463h-148v-1463h-329v766q-123 14 -213.5 58.5t-144.5 109t-79.5 146.5t-25.5 174z" />
<glyph unicode="&#xb7;" horiz-adv-x="550" d="M98 569v391h357v-391h-357z" />
<glyph unicode="&#xb8;" horiz-adv-x="882" d="M207 -283q51 -6 83 -8t50 -2q94 0 94 49q0 27 -23.5 38t-86.5 11h-72l84 215h182l-41 -112q61 -10 100 -28.5t60.5 -43t30 -52.5t8.5 -54q0 -100 -81 -144.5t-222 -44.5q-29 0 -68 2t-98 13v161z" />
<glyph unicode="&#xb9;" horiz-adv-x="843" d="M74 1243l303 180h246v-831h-269v565l-168 -102z" />
<glyph unicode="&#xba;" horiz-adv-x="901" d="M29 1069q0 201 110.5 315.5t313.5 114.5q205 0 312 -112.5t107 -311.5q0 -205 -111.5 -318.5t-314.5 -113.5q-205 0 -311 112.5t-106 313.5zM319 1071q0 -104 32 -148t98 -44t99.5 45t33.5 147q0 104 -34 149.5t-99 45.5q-63 0 -96.5 -45t-33.5 -150z" />
<glyph unicode="&#xbb;" horiz-adv-x="1253" d="M51 57l223 467l-223 469h365l250 -469l-250 -467h-365zM580 57l223 467l-223 469h364l250 -469l-250 -467h-364z" />
<glyph unicode="&#xbc;" horiz-adv-x="2050" d="M49 1243l303 180h246v-831h-269v565l-168 -102zM503 0l662 1415h344l-662 -1415h-344zM1257 153v181l367 499h264v-485h103l-21 -195h-82v-151h-252v151h-379zM1483 348h153v209z" />
<glyph unicode="&#xbd;" horiz-adv-x="2050" d="M49 1243l303 180h246v-831h-269v565l-168 -102zM467 0l662 1415h344l-662 -1415h-344zM1284 567q14 137 103.5 214t246.5 79q154 0 237 -71.5t83 -194.5q0 -90 -41 -148.5t-109 -122.5q-41 -37 -73.5 -64.5t-55.5 -43.5h293l-22 -213h-644v194l207 162q47 37 80 65.5 t54.5 53.5t30.5 47.5t9 48.5q0 68 -61 68q-35 0 -52.5 -21.5t-25.5 -74.5z" />
<glyph unicode="&#xbe;" horiz-adv-x="2050" d="M78 879h246q6 -119 104 -119q41 0 66.5 19.5t25.5 62.5t-25.5 62.5t-68.5 19.5h-64v184h64q82 0 82 74q0 70 -82 69q-39 0 -62.5 -19.5t-33.5 -72.5l-244 25q16 125 105.5 195.5t246.5 70.5q158 0 242 -67.5t84 -176.5q0 -53 -22.5 -96t-77.5 -78q63 -31 91.5 -84 t28.5 -117q0 -119 -90 -192.5t-258 -73.5q-104 0 -172.5 28t-108.5 72t-58.5 100t-18.5 114zM559 0l662 1415h344l-662 -1415h-344zM1257 153v181l367 499h264v-485h103l-21 -195h-82v-151h-252v151h-379zM1483 348h153v209z" />
<glyph unicode="&#xbf;" horiz-adv-x="1067" d="M12 -27q0 55 13.5 101.5t34 85.5t47 69.5t55.5 59.5q45 45 79.5 77.5t59.5 64.5t37 66.5t12 82.5v26h338v-43q0 -82 -22.5 -139t-55 -100t-71.5 -77t-72 -67t-55.5 -67.5t-22.5 -81.5q0 -59 37 -92t104 -33q68 0 112 38t56 124l342 -35q-25 -203 -156.5 -324t-375.5 -121 q-111 0 -202 26t-156.5 75t-101.5 120.5t-36 163.5zM348 721v354h346v-354h-346z" />
<glyph unicode="&#xc0;" horiz-adv-x="1523" d="M31 0l508 1462h446l508 -1462h-408l-84 281h-493l-82 -281h-395zM303 1898h422l262 -317h-346zM604 594h301l-149 504z" />
<glyph unicode="&#xc1;" horiz-adv-x="1523" d="M31 0l508 1462h446l508 -1462h-408l-84 281h-493l-82 -281h-395zM534 1581l262 317h422l-338 -317h-346zM604 594h301l-149 504z" />
<glyph unicode="&#xc2;" horiz-adv-x="1523" d="M31 0l508 1462h446l508 -1462h-408l-84 281h-493l-82 -281h-395zM321 1581l258 317h359l260 -317h-314l-123 141l-122 -141h-318zM604 594h301l-149 504z" />
<glyph unicode="&#xc3;" horiz-adv-x="1523" d="M31 0l508 1462h446l508 -1462h-408l-84 281h-493l-82 -281h-395zM333 1575q0 168 72 249t190 81q53 0 91.5 -13.5t69 -29t58 -28.5t60.5 -13q74 0 74 84h237q0 -168 -71.5 -249t-190.5 -81q-53 0 -92 13.5t-69.5 28.5t-57.5 28.5t-59 13.5q-74 0 -74 -84h-238zM604 594 h301l-149 504z" />
<glyph unicode="&#xc4;" horiz-adv-x="1523" d="M31 0l508 1462h446l508 -1462h-408l-84 281h-493l-82 -281h-395zM354 1589v295h344v-295h-344zM604 594h301l-149 504zM823 1589v295h344v-295h-344z" />
<glyph unicode="&#xc5;" horiz-adv-x="1523" d="M31 0l512 1448q-51 62 -51 160q0 63 21.5 110t58 80t86 49.5t104.5 16.5t104 -16.5t86 -49.5t58.5 -80t21.5 -110q0 -51 -14 -91t-39 -69l514 -1448h-408l-84 281h-493l-82 -281h-395zM604 594h301l-149 504zM678 1602q0 -45 22.5 -67t61.5 -22q88 0 88 89 q0 47 -23.5 68.5t-64.5 21.5q-39 0 -61.5 -21.5t-22.5 -68.5z" />
<glyph unicode="&#xc6;" horiz-adv-x="2217" d="M31 0l809 1462h1284v-323h-613v-234h572v-323h-572v-258h656l-33 -324h-995v393h-494l-203 -393h-411zM809 707h330v440h-101z" />
<glyph unicode="&#xc7;" horiz-adv-x="1490" d="M92 723q0 172 44 314.5t133 244.5t221.5 159.5t310.5 57.5q270 0 422.5 -134t193.5 -382l-391 -45q-10 47 -26.5 88t-44 70.5t-68.5 47t-99 17.5q-281 0 -280 -428q0 -119 20.5 -201.5t58.5 -134t90 -74t116 -22.5q215 0 245 234h402q-8 -117 -47 -217.5t-113 -175 t-180.5 -122t-249.5 -55.5l-21 -61q63 -8 103.5 -26.5t64 -44.5t31.5 -54.5t8 -57.5q0 -100 -84 -146t-229 -46q-29 0 -68 2t-100 12v164q45 -6 68.5 -8t64.5 -2q53 0 75.5 13.5t22.5 39.5q0 27 -23.5 39t-88.5 12h-74l66 170q-145 18 -254 81t-179.5 161t-105.5 227 t-35 283z" />
<glyph unicode="&#xc8;" horiz-adv-x="1275" d="M135 0v1462h1047v-323h-664v-234h623v-323h-623v-258h707l-33 -324h-1057zM231 1898h422l262 -317h-346z" />
<glyph unicode="&#xc9;" horiz-adv-x="1275" d="M135 0v1462h1047v-323h-664v-234h623v-323h-623v-258h707l-33 -324h-1057zM426 1581l262 317h422l-338 -317h-346z" />
<glyph unicode="&#xca;" horiz-adv-x="1275" d="M135 0v1462h1047v-323h-664v-234h623v-323h-623v-258h707l-33 -324h-1057zM223 1581l258 317h359l260 -317h-314l-123 141l-122 -141h-318z" />
<glyph unicode="&#xcb;" horiz-adv-x="1275" d="M135 0v1462h1047v-323h-664v-234h623v-323h-623v-258h707l-33 -324h-1057zM256 1589v295h344v-295h-344zM725 1589v295h344v-295h-344z" />
<glyph unicode="&#xcc;" horiz-adv-x="663" d="M-135 1898h422l262 -317h-346zM135 0v1462h393v-1462h-393z" />
<glyph unicode="&#xcd;" horiz-adv-x="663" d="M116 1581l262 317h422l-338 -317h-346zM135 0v1462h393v-1462h-393z" />
<glyph unicode="&#xce;" horiz-adv-x="663" d="M-105 1581l258 317h359l260 -317h-314l-123 141l-122 -141h-318zM135 0v1462h393v-1462h-393z" />
<glyph unicode="&#xcf;" horiz-adv-x="663" d="M-71 1589v295h344v-295h-344zM135 0v1462h393v-1462h-393zM398 1589v295h344v-295h-344z" />
<glyph unicode="&#xd0;" horiz-adv-x="1593" d="M20 586v311h166v565h576q360 0 549.5 -181t189.5 -533q0 -362 -197.5 -555t-564.5 -193h-553v586h-166zM565 332h180q180 0 264.5 105.5t84.5 297.5q0 193 -78 294t-250 101h-201v-233h250v-311h-250v-254z" />
<glyph unicode="&#xd1;" horiz-adv-x="1513" d="M135 0v1462h344l527 -837v837h372v-1462h-340l-530 836v-836h-373zM321 1575q0 168 72 249t190 81q53 0 91.5 -13.5t69 -29t58 -28.5t60.5 -13q74 0 74 84h237q0 -168 -71.5 -249t-190.5 -81q-53 0 -92 13.5t-69.5 28.5t-57.5 28.5t-59 13.5q-74 0 -74 -84h-238z" />
<glyph unicode="&#xd2;" horiz-adv-x="1624" d="M92 725q0 178 48 321.5t140.5 244t227.5 154.5t309 54q172 0 305 -53t224.5 -151.5t138.5 -240t47 -317.5q0 -178 -48 -321.5t-140.5 -243.5t-227.5 -154.5t-309 -54.5q-172 0 -305 53.5t-224.5 151.5t-138.5 239.5t-47 317.5zM395 1898h422l262 -317h-346zM500 731 q0 -211 77.5 -320.5t235.5 -109.5t234.5 109.5t76.5 320.5t-76.5 320.5t-234.5 109.5t-235.5 -109.5t-77.5 -320.5z" />
<glyph unicode="&#xd3;" horiz-adv-x="1624" d="M92 725q0 178 48 321.5t140.5 244t227.5 154.5t309 54q172 0 305 -53t224.5 -151.5t138.5 -240t47 -317.5q0 -178 -48 -321.5t-140.5 -243.5t-227.5 -154.5t-309 -54.5q-172 0 -305 53.5t-224.5 151.5t-138.5 239.5t-47 317.5zM500 731q0 -211 77.5 -320.5t235.5 -109.5 t234.5 109.5t76.5 320.5t-76.5 320.5t-234.5 109.5t-235.5 -109.5t-77.5 -320.5zM553 1581l262 317h422l-338 -317h-346z" />
<glyph unicode="&#xd4;" horiz-adv-x="1624" d="M92 725q0 178 48 321.5t140.5 244t227.5 154.5t309 54q172 0 305 -53t224.5 -151.5t138.5 -240t47 -317.5q0 -178 -48 -321.5t-140.5 -243.5t-227.5 -154.5t-309 -54.5q-172 0 -305 53.5t-224.5 151.5t-138.5 239.5t-47 317.5zM373 1581l258 317h359l260 -317h-314 l-123 141l-122 -141h-318zM500 731q0 -211 77.5 -320.5t235.5 -109.5t234.5 109.5t76.5 320.5t-76.5 320.5t-234.5 109.5t-235.5 -109.5t-77.5 -320.5z" />
<glyph unicode="&#xd5;" horiz-adv-x="1624" d="M92 725q0 178 48 321.5t140.5 244t227.5 154.5t309 54q172 0 305 -53t224.5 -151.5t138.5 -240t47 -317.5q0 -178 -48 -321.5t-140.5 -243.5t-227.5 -154.5t-309 -54.5q-172 0 -305 53.5t-224.5 151.5t-138.5 239.5t-47 317.5zM385 1575q0 168 72 249t190 81 q53 0 91.5 -13.5t69 -29t58 -28.5t60.5 -13q74 0 74 84h237q0 -168 -71.5 -249t-190.5 -81q-53 0 -92 13.5t-69.5 28.5t-57.5 28.5t-59 13.5q-74 0 -74 -84h-238zM500 731q0 -211 77.5 -320.5t235.5 -109.5t234.5 109.5t76.5 320.5t-76.5 320.5t-234.5 109.5t-235.5 -109.5 t-77.5 -320.5z" />
<glyph unicode="&#xd6;" horiz-adv-x="1624" d="M92 725q0 178 48 321.5t140.5 244t227.5 154.5t309 54q172 0 305 -53t224.5 -151.5t138.5 -240t47 -317.5q0 -178 -48 -321.5t-140.5 -243.5t-227.5 -154.5t-309 -54.5q-172 0 -305 53.5t-224.5 151.5t-138.5 239.5t-47 317.5zM406 1589v295h344v-295h-344zM500 731 q0 -211 77.5 -320.5t235.5 -109.5t234.5 109.5t76.5 320.5t-76.5 320.5t-234.5 109.5t-235.5 -109.5t-77.5 -320.5zM875 1589v295h344v-295h-344z" />
<glyph unicode="&#xd7;" d="M119 434l264 264l-260 263l223 223l260 -262l260 262l224 -223l-261 -263l265 -264l-224 -223l-264 264l-264 -264z" />
<glyph unicode="&#xd8;" horiz-adv-x="1624" d="M92 725q0 178 48 321.5t140.5 244t227.5 154.5t309 54q186 0 334 -65l104 159l162 -106l-106 -160q109 -98 165 -247.5t56 -342.5q0 -178 -48 -321.5t-140.5 -243.5t-227.5 -154.5t-309 -54.5q-102 0 -188.5 18.5t-159.5 53.5l-111 -166l-162 106l113 170 q-207 203 -207 580zM492 731q0 -141 34 -239l428 647q-63 29 -141 28q-162 0 -241.5 -110.5t-79.5 -325.5zM653 332q68 -37 160 -37q162 0 241 110.5t79 325.5q0 158 -43 260z" />
<glyph unicode="&#xd9;" horiz-adv-x="1470" d="M117 606v856h393v-870q0 -147 51 -219t174 -72t174.5 71.5t51.5 219.5v870h393v-856q0 -170 -43 -291.5t-123 -199.5t-196 -115t-261 -37t-260 37t-193.5 115t-119.5 199.5t-41 291.5zM297 1898h422l262 -317h-346z" />
<glyph unicode="&#xda;" horiz-adv-x="1470" d="M117 606v856h393v-870q0 -147 51 -219t174 -72t174.5 71.5t51.5 219.5v870h393v-856q0 -170 -43 -291.5t-123 -199.5t-196 -115t-261 -37t-260 37t-193.5 115t-119.5 199.5t-41 291.5zM495 1581l262 317h422l-338 -317h-346z" />
<glyph unicode="&#xdb;" horiz-adv-x="1470" d="M117 606v856h393v-870q0 -147 51 -219t174 -72t174.5 71.5t51.5 219.5v870h393v-856q0 -170 -43 -291.5t-123 -199.5t-196 -115t-261 -37t-260 37t-193.5 115t-119.5 199.5t-41 291.5zM297 1581l258 317h359l260 -317h-314l-123 141l-122 -141h-318z" />
<glyph unicode="&#xdc;" horiz-adv-x="1470" d="M117 606v856h393v-870q0 -147 51 -219t174 -72t174.5 71.5t51.5 219.5v870h393v-856q0 -170 -43 -291.5t-123 -199.5t-196 -115t-261 -37t-260 37t-193.5 115t-119.5 199.5t-41 291.5zM330 1589v295h344v-295h-344zM799 1589v295h344v-295h-344z" />
<glyph unicode="&#xdd;" horiz-adv-x="1413" d="M20 1462h426l265 -559l268 559h414l-486 -895v-567h-395v567zM489 1581l262 317h422l-338 -317h-346z" />
<glyph unicode="&#xde;" horiz-adv-x="1333" d="M135 0v1462h381v-229h166q172 0 285.5 -39t180 -105.5t93.5 -154.5t27 -189q0 -102 -28 -193t-94.5 -158.5t-179 -107.5t-280.5 -40h-170v-246h-381zM516 559h168q123 0 171 46t48 138q0 90 -48 134.5t-173 44.5h-166v-363z" />
<glyph unicode="&#xdf;" horiz-adv-x="1298" d="M113 0v979q0 238 142 369t390 131q111 0 201 -27t153.5 -76t98.5 -119.5t35 -160.5q0 -86 -36 -159t-118 -124q131 -43 193.5 -140.5t62.5 -242.5q0 -92 -26.5 -174t-83 -142.5t-144.5 -95t-211 -34.5q-43 0 -97.5 6t-113.5 24l41 269q25 -4 49.5 -8.5t52.5 -4.5 q170 0 170 172q0 98 -56 138.5t-175 40.5h-57v276h49q70 0 107.5 39t37.5 113q0 66 -32.5 105.5t-110.5 39.5q-164 0 -164 -201v-993h-358z" />
<glyph unicode="&#xe0;" horiz-adv-x="1198" d="M61 295q0 98 40 164.5t110 108.5t164 61.5t203 25.5l161 9v43q0 80 -38.5 110.5t-98.5 30.5q-127 0 -145 -107l-334 27q29 172 153.5 256t341.5 84q135 0 226.5 -32t147 -89t80 -138t24.5 -181v-668h-346v117q-66 -70 -143 -108t-183 -38q-72 0 -137.5 18.5t-115.5 58.5 t-80 100.5t-30 146.5zM202 1538h414l256 -338h-340zM418 324q0 -53 31.5 -76t89.5 -23q86 0 142 48.5t56 144.5v37l-119 -6q-117 -6 -158.5 -39t-41.5 -86z" />
<glyph unicode="&#xe1;" horiz-adv-x="1198" d="M61 295q0 98 40 164.5t110 108.5t164 61.5t203 25.5l161 9v43q0 80 -38.5 110.5t-98.5 30.5q-127 0 -145 -107l-334 27q29 172 153.5 256t341.5 84q135 0 226.5 -32t147 -89t80 -138t24.5 -181v-668h-346v117q-66 -70 -143 -108t-183 -38q-72 0 -137.5 18.5t-115.5 58.5 t-80 100.5t-30 146.5zM376 1200l256 338h414l-330 -338h-340zM418 324q0 -53 31.5 -76t89.5 -23q86 0 142 48.5t56 144.5v37l-119 -6q-117 -6 -158.5 -39t-41.5 -86z" />
<glyph unicode="&#xe2;" horiz-adv-x="1198" d="M61 295q0 98 40 164.5t110 108.5t164 61.5t203 25.5l161 9v43q0 80 -38.5 110.5t-98.5 30.5q-127 0 -145 -107l-334 27q29 172 153.5 256t341.5 84q135 0 226.5 -32t147 -89t80 -138t24.5 -181v-668h-346v117q-66 -70 -143 -108t-183 -38q-72 0 -137.5 18.5t-115.5 58.5 t-80 100.5t-30 146.5zM182 1194l258 338h350l258 -338h-307l-123 158l-122 -158h-314zM418 324q0 -53 31.5 -76t89.5 -23q86 0 142 48.5t56 144.5v37l-119 -6q-117 -6 -158.5 -39t-41.5 -86z" />
<glyph unicode="&#xe3;" horiz-adv-x="1198" d="M61 295q0 98 40 164.5t110 108.5t164 61.5t203 25.5l161 9v43q0 80 -38.5 110.5t-98.5 30.5q-127 0 -145 -107l-334 27q29 172 153.5 256t341.5 84q135 0 226.5 -32t147 -89t80 -138t24.5 -181v-668h-346v117q-66 -70 -143 -108t-183 -38q-72 0 -137.5 18.5t-115.5 58.5 t-80 100.5t-30 146.5zM205 1206q0 168 67.5 250t184.5 82q51 0 87.5 -13.5t67.5 -28.5t58.5 -28.5t60.5 -13.5q72 0 72 84h229q0 -170 -67.5 -251t-184.5 -81q-51 0 -88 13.5t-67.5 29t-58.5 28.5t-60 13q-72 0 -72 -84h-229zM418 324q0 -53 31.5 -76t89.5 -23 q86 0 142 48.5t56 144.5v37l-119 -6q-117 -6 -158.5 -39t-41.5 -86z" />
<glyph unicode="&#xe4;" horiz-adv-x="1198" d="M61 295q0 98 40 164.5t110 108.5t164 61.5t203 25.5l161 9v43q0 80 -38.5 110.5t-98.5 30.5q-127 0 -145 -107l-334 27q29 172 153.5 256t341.5 84q135 0 226.5 -32t147 -89t80 -138t24.5 -181v-668h-346v117q-66 -70 -143 -108t-183 -38q-72 0 -137.5 18.5t-115.5 58.5 t-80 100.5t-30 146.5zM219 1212v273h328v-273h-328zM418 324q0 -53 31.5 -76t89.5 -23q86 0 142 48.5t56 144.5v37l-119 -6q-117 -6 -158.5 -39t-41.5 -86zM670 1212v273h327v-273h-327z" />
<glyph unicode="&#xe5;" horiz-adv-x="1198" d="M61 295q0 98 40 164.5t110 108.5t164 61.5t203 25.5l161 9v43q0 80 -38.5 110.5t-98.5 30.5q-127 0 -145 -107l-334 27q29 172 153.5 256t341.5 84q135 0 226.5 -32t147 -89t80 -138t24.5 -181v-668h-346v117q-66 -70 -143 -108t-183 -38q-72 0 -137.5 18.5t-115.5 58.5 t-80 100.5t-30 146.5zM356 1432q0 63 21.5 110t57.5 78t82 46t97 15t97.5 -15t82 -46t57 -78t21.5 -110t-21.5 -110.5t-57 -77.5t-81.5 -45t-98 -15q-51 0 -97 15t-82 45t-57.5 77.5t-21.5 110.5zM418 324q0 -53 31.5 -76t89.5 -23q86 0 142 48.5t56 144.5v37l-119 -6 q-117 -6 -158.5 -39t-41.5 -86zM532 1432q0 -43 22.5 -63.5t57.5 -20.5q37 0 60.5 20.5t23.5 63.5q0 47 -23.5 66.5t-60.5 19.5q-35 0 -57.5 -19.5t-22.5 -66.5z" />
<glyph unicode="&#xe6;" horiz-adv-x="1849" d="M61 301q0 96 40 161.5t110 106.5t162 60.5t196 25.5l160 9v43q0 80 -37 110.5t-96 30.5q-121 0 -139 -107l-334 27q25 166 149.5 253t321.5 87q123 0 201.5 -34t126.5 -99q129 133 348 133q119 0 211 -38t155.5 -108.5t97 -171t33.5 -223.5v-116h-698q10 -117 51 -167.5 t127 -50.5q135 0 166 113h346q-33 -199 -164 -289t-323 -90q-150 0 -252 50.5t-162 146.5q-66 -92 -162 -142.5t-237 -50.5q-78 0 -149.5 18.5t-127 58.5t-88.5 102.5t-33 150.5zM418 324q0 -53 30.5 -76t86.5 -23q82 0 137 48.5t55 144.5v37l-115 -6q-115 -6 -154.5 -40 t-39.5 -85zM1069 662h356q-4 98 -44 141t-124 43q-98 0 -138 -52.5t-50 -131.5z" />
<glyph unicode="&#xe7;" horiz-adv-x="1181" d="M82 528q0 135 37 243t106.5 182.5t172 114.5t233.5 40q119 0 205 -32t144 -86t90 -128t42 -155l-354 -35q-8 59 -40 100t-97 41q-88 0 -126 -72.5t-38 -203.5q0 -129 36.5 -201t127.5 -72q133 0 145 150h358q-8 -92 -37.5 -170t-84 -136.5t-134.5 -94.5t-186 -44l-23 -61 q61 -10 100.5 -28.5t61 -43t29.5 -52.5t8 -54q0 -100 -81 -144.5t-222 -44.5q-29 0 -67.5 2t-98.5 13v161q51 -6 83 -8t50 -2q94 0 94 49q0 27 -23.5 38t-86.5 11h-72l66 172q-217 35 -317.5 183.5t-100.5 367.5z" />
<glyph unicode="&#xe8;" horiz-adv-x="1228" d="M82 520q0 141 39 251t109.5 184.5t172 113.5t228.5 39t223 -38t161.5 -108.5t98.5 -171t33 -223.5v-116h-709q10 -117 52 -167.5t133 -50.5q139 0 170 113h346q-33 -190 -164 -284.5t-348 -94.5q-270 0 -407.5 143.5t-137.5 409.5zM212 1538h414l256 -338h-340zM438 662 h367q-4 98 -46 141t-128 43q-94 0 -139.5 -49t-53.5 -135z" />
<glyph unicode="&#xe9;" horiz-adv-x="1228" d="M82 520q0 141 39 251t109.5 184.5t172 113.5t228.5 39t223 -38t161.5 -108.5t98.5 -171t33 -223.5v-116h-709q10 -117 52 -167.5t133 -50.5q139 0 170 113h346q-33 -190 -164 -284.5t-348 -94.5q-270 0 -407.5 143.5t-137.5 409.5zM385 1200l256 338h414l-330 -338h-340z M438 662h367q-4 98 -46 141t-128 43q-94 0 -139.5 -49t-53.5 -135z" />
<glyph unicode="&#xea;" horiz-adv-x="1228" d="M82 520q0 141 39 251t109.5 184.5t172 113.5t228.5 39t223 -38t161.5 -108.5t98.5 -171t33 -223.5v-116h-709q10 -117 52 -167.5t133 -50.5q139 0 170 113h346q-33 -190 -164 -284.5t-348 -94.5q-270 0 -407.5 143.5t-137.5 409.5zM192 1194l258 338h350l258 -338h-307 l-123 158l-122 -158h-314zM438 662h367q-4 98 -46 141t-128 43q-94 0 -139.5 -49t-53.5 -135z" />
<glyph unicode="&#xeb;" horiz-adv-x="1228" d="M82 520q0 141 39 251t109.5 184.5t172 113.5t228.5 39t223 -38t161.5 -108.5t98.5 -171t33 -223.5v-116h-709q10 -117 52 -167.5t133 -50.5q139 0 170 113h346q-33 -190 -164 -284.5t-348 -94.5q-270 0 -407.5 143.5t-137.5 409.5zM239 1212v273h328v-273h-328zM438 662 h367q-4 98 -46 141t-128 43q-94 0 -139.5 -49t-53.5 -135zM690 1212v273h327v-273h-327z" />
<glyph unicode="&#xec;" horiz-adv-x="595" d="M-177 1538h414l256 -338h-340zM113 0v1075h370v-1075h-370z" />
<glyph unicode="&#xed;" horiz-adv-x="595" d="M106 1200l256 338h414l-330 -338h-340zM113 0v1075h370v-1075h-370z" />
<glyph unicode="&#xee;" horiz-adv-x="595" d="M-135 1194l258 338h350l258 -338h-307l-123 158l-122 -158h-314zM113 0v1075h370v-1075h-370z" />
<glyph unicode="&#xef;" horiz-adv-x="595" d="M-88 1212v273h328v-273h-328zM113 0v1075h370v-1075h-370zM363 1212v273h327v-273h-327z" />
<glyph unicode="&#xf0;" horiz-adv-x="1277" d="M80 471q0 123 37 218t101.5 160.5t151.5 100.5t185 35q92 0 161.5 -28.5t119.5 -82.5q-20 115 -77 188t-141 118l-141 -142l-108 109l90 90q-45 10 -92.5 16.5t-96.5 10.5l47 268q203 -16 363 -74l139 139l109 -108l-99 -98q178 -104 271.5 -286.5t93.5 -457.5 q0 -186 -42 -315t-118 -210t-180 -118t-229 -37q-121 0 -221.5 32t-172 95.5t-111.5 157.5t-40 219zM455 479q0 -113 48 -170t132 -57q82 0 133 56.5t51 172.5q0 115 -49 169.5t-133 54.5q-86 0 -134 -56.5t-48 -169.5z" />
<glyph unicode="&#xf1;" horiz-adv-x="1249" d="M113 0v1075h360v-127q66 86 146.5 123t179.5 37q166 0 257 -97.5t91 -291.5v-719h-371v659q0 84 -31.5 114t-89.5 30q-74 0 -123 -47q-23 -23 -36 -51.5t-13 -81.5v-623h-370zM217 1206q0 168 67.5 250t184.5 82q51 0 87.5 -13.5t67.5 -28.5t58.5 -28.5t60.5 -13.5 q72 0 72 84h229q0 -170 -67.5 -251t-184.5 -81q-51 0 -88 13.5t-67.5 29t-58.5 28.5t-60 13q-72 0 -72 -84h-229z" />
<glyph unicode="&#xf2;" horiz-adv-x="1277" d="M82 535q0 272 148.5 422.5t412.5 150.5q262 0 407.5 -148.5t145.5 -416.5t-147.5 -421t-413.5 -153q-262 0 -407.5 148.5t-145.5 417.5zM217 1538h414l256 -338h-340zM457 539q0 -147 48 -211t134 -64t134 63.5t48 211.5q0 147 -48 210.5t-134 63.5t-134 -63.5 t-48 -210.5z" />
<glyph unicode="&#xf3;" horiz-adv-x="1277" d="M82 535q0 272 148.5 422.5t412.5 150.5q262 0 407.5 -148.5t145.5 -416.5t-147.5 -421t-413.5 -153q-262 0 -407.5 148.5t-145.5 417.5zM397 1200l256 338h414l-330 -338h-340zM457 539q0 -147 48 -211t134 -64t134 63.5t48 211.5q0 147 -48 210.5t-134 63.5t-134 -63.5 t-48 -210.5z" />
<glyph unicode="&#xf4;" horiz-adv-x="1277" d="M82 535q0 272 148.5 422.5t412.5 150.5q262 0 407.5 -148.5t145.5 -416.5t-147.5 -421t-413.5 -153q-262 0 -407.5 148.5t-145.5 417.5zM203 1194l258 338h350l258 -338h-307l-123 158l-122 -158h-314zM457 539q0 -147 48 -211t134 -64t134 63.5t48 211.5 q0 147 -48 210.5t-134 63.5t-134 -63.5t-48 -210.5z" />
<glyph unicode="&#xf5;" horiz-adv-x="1277" d="M82 535q0 272 148.5 422.5t412.5 150.5q262 0 407.5 -148.5t145.5 -416.5t-147.5 -421t-413.5 -153q-262 0 -407.5 148.5t-145.5 417.5zM224 1206q0 168 67.5 250t184.5 82q51 0 87.5 -13.5t67.5 -28.5t58.5 -28.5t60.5 -13.5q72 0 72 84h229q0 -170 -67.5 -251 t-184.5 -81q-51 0 -88 13.5t-67.5 29t-58.5 28.5t-60 13q-72 0 -72 -84h-229zM457 539q0 -147 48 -211t134 -64t134 63.5t48 211.5q0 147 -48 210.5t-134 63.5t-134 -63.5t-48 -210.5z" />
<glyph unicode="&#xf6;" horiz-adv-x="1277" d="M82 535q0 272 148.5 422.5t412.5 150.5q262 0 407.5 -148.5t145.5 -416.5t-147.5 -421t-413.5 -153q-262 0 -407.5 148.5t-145.5 417.5zM250 1212v273h328v-273h-328zM457 539q0 -147 48 -211t134 -64t134 63.5t48 211.5q0 147 -48 210.5t-134 63.5t-134 -63.5 t-48 -210.5zM701 1212v273h327v-273h-327z" />
<glyph unicode="&#xf7;" d="M121 537v321h971v-321h-971zM449 143v287h311v-287h-311zM449 958v287h311v-287h-311z" />
<glyph unicode="&#xf8;" horiz-adv-x="1277" d="M82 535q0 268 147.5 420.5t413.5 152.5q70 0 131.5 -11.5t114.5 -31.5l90 131l145 -100l-86 -125q158 -152 158 -428q0 -270 -147.5 -422t-413.5 -152q-139 0 -252 45l-107 -157l-147 102l104 152q-74 74 -112.5 180t-38.5 244zM432 539q0 -66 10 -123l275 399 q-31 14 -78 14q-98 0 -152.5 -67t-54.5 -223zM553 262q35 -14 86 -14q98 0 152.5 67.5t54.5 223.5q0 80 -15 131z" />
<glyph unicode="&#xf9;" horiz-adv-x="1239" d="M102 356v719h371v-659q0 -84 31 -114t86 -30q70 0 119 47q20 23 33.5 51.5t13.5 82.5v622h370v-1075h-360v127q-63 -86 -144 -123t-178 -37q-164 0 -253 99.5t-89 289.5zM215 1538h414l256 -338h-340z" />
<glyph unicode="&#xfa;" horiz-adv-x="1239" d="M102 356v719h371v-659q0 -84 31 -114t86 -30q70 0 119 47q20 23 33.5 51.5t13.5 82.5v622h370v-1075h-360v127q-63 -86 -144 -123t-178 -37q-164 0 -253 99.5t-89 289.5zM374 1200l256 338h414l-330 -338h-340z" />
<glyph unicode="&#xfb;" horiz-adv-x="1239" d="M102 356v719h371v-659q0 -84 31 -114t86 -30q70 0 119 47q20 23 33.5 51.5t13.5 82.5v622h370v-1075h-360v127q-63 -86 -144 -123t-178 -37q-164 0 -253 99.5t-89 289.5zM182 1194l258 338h350l258 -338h-307l-123 158l-122 -158h-314z" />
<glyph unicode="&#xfc;" horiz-adv-x="1239" d="M102 356v719h371v-659q0 -84 31 -114t86 -30q70 0 119 47q20 23 33.5 51.5t13.5 82.5v622h370v-1075h-360v127q-63 -86 -144 -123t-178 -37q-164 0 -253 99.5t-89 289.5zM227 1212v273h328v-273h-328zM678 1212v273h327v-273h-327z" />
<glyph unicode="&#xfd;" horiz-adv-x="1220" d="M20 1075h402l205 -600l188 600h385l-430 -1079q-43 -106 -81 -181t-85 -122t-106.5 -68.5t-145.5 -21.5q-66 0 -128 11t-115 28l55 268q29 -6 61.5 -11t61.5 -5q51 0 89 25.5t62 96.5l23 66zM358 1200l256 338h414l-330 -338h-340z" />
<glyph unicode="&#xfe;" horiz-adv-x="1298" d="M113 -397v1859h370v-491q111 139 303 139q203 0 317 -145.5t114 -409.5q0 -139 -32 -248.5t-91.5 -184.5t-142.5 -114t-185 -39q-180 0 -283 127v-493h-370zM483 526q0 -74 11.5 -123t31.5 -77q25 -35 61 -48.5t72 -13.5q84 0 133.5 62.5t49.5 212.5q0 147 -49.5 209.5 t-130.5 62.5q-39 0 -74 -14.5t-62 -53.5q-43 -61 -43 -186v-31z" />
<glyph unicode="&#xff;" horiz-adv-x="1220" d="M20 1075h402l205 -600l188 600h385l-430 -1079q-43 -106 -81 -181t-85 -122t-106.5 -68.5t-145.5 -21.5q-66 0 -128 11t-115 28l55 268q29 -6 61.5 -11t61.5 -5q51 0 89 25.5t62 96.5l23 66zM221 1212v273h328v-273h-328zM672 1212v273h327v-273h-327z" />
<glyph unicode="&#x152;" horiz-adv-x="2170" d="M92 725q0 174 46 317.5t130 245t203 156.5t264 55q117 0 200 -34.5t148 -102.5v100h996v-323h-613v-234h572v-323h-572v-258h656l-35 -324h-1004v102q-61 -66 -146 -102.5t-208 -36.5q-145 0 -262 54.5t-201 153.5t-129 239.5t-45 314.5zM502 731q0 -213 76 -321.5 t223 -108.5q143 0 212.5 103.5t69.5 302.5v63q0 184 -70.5 287.5t-213.5 103.5q-145 0 -221 -109.5t-76 -320.5z" />
<glyph unicode="&#x153;" horiz-adv-x="1933" d="M80 532q0 137 38 244t107.5 180.5t170 112.5t227.5 39q129 0 216 -40t150 -124q63 82 151.5 123t211.5 41q121 0 215 -38t158.5 -108.5t97 -171t32.5 -223.5v-116h-692q10 -217 185 -218q127 0 151 113h348q-33 -190 -156.5 -284.5t-332.5 -94.5q-137 0 -226.5 40 t-150.5 118q-70 -80 -157 -119t-212 -39q-252 0 -392 150.5t-140 414.5zM455 539q0 -143 46 -209t130 -66t130 65.5t46 209.5q0 143 -46 208.5t-130 65.5t-130 -65.5t-46 -208.5zM1167 662h344q-1 186 -161 186q-86 0 -131 -48t-52 -138z" />
<glyph unicode="&#x178;" horiz-adv-x="1413" d="M20 1462h426l265 -559l268 559h414l-486 -895v-567h-395v567zM301 1589v295h344v-295h-344zM770 1589v295h344v-295h-344z" />
<glyph unicode="&#x2c6;" horiz-adv-x="882" d="M8 1194l258 338h350l258 -338h-307l-123 158l-122 -158h-314z" />
<glyph unicode="&#x2dc;" horiz-adv-x="882" d="M27 1206q0 168 67.5 250t184.5 82q51 0 87.5 -13.5t67.5 -28.5t58.5 -28.5t60.5 -13.5q72 0 72 84h229q0 -170 -67.5 -251t-184.5 -81q-51 0 -88 13.5t-67.5 29t-58.5 28.5t-60 13q-72 0 -72 -84h-229z" />
<glyph unicode="&#x2000;" horiz-adv-x="952" />
<glyph unicode="&#x2001;" horiz-adv-x="1905" />
<glyph unicode="&#x2002;" horiz-adv-x="952" />
<glyph unicode="&#x2003;" horiz-adv-x="1905" />
<glyph unicode="&#x2004;" horiz-adv-x="635" />
<glyph unicode="&#x2005;" horiz-adv-x="476" />
<glyph unicode="&#x2006;" horiz-adv-x="317" />
<glyph unicode="&#x2007;" horiz-adv-x="317" />
<glyph unicode="&#x2008;" horiz-adv-x="238" />
<glyph unicode="&#x2009;" horiz-adv-x="381" />
<glyph unicode="&#x200a;" horiz-adv-x="105" />
<glyph unicode="&#x2010;" horiz-adv-x="839" d="M80 444v342h680v-342h-680z" />
<glyph unicode="&#x2011;" horiz-adv-x="839" d="M80 444v342h680v-342h-680z" />
<glyph unicode="&#x2012;" horiz-adv-x="839" d="M80 444v342h680v-342h-680z" />
<glyph unicode="&#x2013;" horiz-adv-x="1024" d="M0 451v327h1024v-327h-1024z" />
<glyph unicode="&#x2014;" horiz-adv-x="2048" d="M0 451v327h2048v-327h-2048z" />
<glyph unicode="&#x2018;" horiz-adv-x="546" d="M61 885l140 577h284l-69 -577h-355z" />
<glyph unicode="&#x2019;" horiz-adv-x="546" d="M61 885l70 577h354l-139 -577h-285z" />
<glyph unicode="&#x201a;" horiz-adv-x="550" d="M49 -193l74 584h354l-145 -584h-283z" />
<glyph unicode="&#x201c;" horiz-adv-x="987" d="M61 885l140 577h272l-70 -577h-342zM514 885l139 577h273l-70 -577h-342z" />
<glyph unicode="&#x201d;" horiz-adv-x="987" d="M61 885l70 577h342l-139 -577h-273zM514 885l70 577h342l-140 -577h-272z" />
<glyph unicode="&#x201e;" horiz-adv-x="989" d="M49 -188l70 577h342l-142 -577h-270zM504 -188l69 577h342l-141 -577h-270z" />
<glyph unicode="&#x2022;" horiz-adv-x="837" d="M90 741q0 74 24.5 134.5t68.5 103.5t103.5 66.5t131.5 23.5q70 0 130 -23.5t104 -66.5t68.5 -103.5t24.5 -134.5t-24.5 -134t-68.5 -103t-104.5 -66.5t-129.5 -23.5q-72 0 -131.5 23.5t-103.5 66.5t-68.5 103t-24.5 134z" />
<glyph unicode="&#x2026;" horiz-adv-x="2181" d="M98 0v391h357v-391h-357zM913 0v391h357v-391h-357zM1728 0v391h357v-391h-357z" />
<glyph unicode="&#x202f;" horiz-adv-x="381" />
<glyph unicode="&#x2039;" horiz-adv-x="739" d="M59 526l250 467h379l-223 -467l223 -469h-379z" />
<glyph unicode="&#x203a;" horiz-adv-x="739" d="M51 57l223 467l-223 469h379l250 -469l-250 -467h-379z" />
<glyph unicode="&#x205f;" horiz-adv-x="476" />
<glyph unicode="&#x20ac;" d="M25 475l28 180h94v107h-122l28 180h113q18 109 56 201t102.5 161.5t159 109.5t227.5 40q399 0 469 -391l-342 -43q-16 66 -47 96.5t-99 30.5q-133 0 -170 -205h350l-28 -180h-338v-107h325l-28 -180h-283q18 -102 59.5 -153.5t118.5 -51.5q66 0 99.5 36t44.5 91h356 q-29 -203 -153.5 -318.5t-348.5 -115.5q-131 0 -224 39t-156.5 107.5t-100.5 162t-53 203.5h-137z" />
<glyph unicode="&#x2122;" horiz-adv-x="1937" d="M41 1245v217h733v-217h-244v-602h-245v602h-244zM885 643v819h301l172 -540l172 540h299v-819h-225v457l-148 -457h-205l-145 455v-455h-221z" />
<glyph unicode="&#x25fc;" horiz-adv-x="1075" d="M0 0v1075h1075v-1075h-1075z" />
</font>
</defs>
</svg>
